<?xml version="1.0" encoding="UTF-8"?>
<svg id="Calque_2" data-name="Calque 2" xmlns="http://www.w3.org/2000/svg" viewBox="0 0 139.56 141.56">
  <defs>
    <style>
      .cls-1 {
        fill: #009540;
      }
    </style>
  </defs>
  <g id="Calque_1-2" data-name="Calque 1">
    <path class="cls-1" d="M103.21,141.56h-33.14s-11.92,0-11.92,0v-5.94c0-13.03-10.42-23.6-23.26-23.6s-23.26,10.56-23.26,23.6v5.94H.02v-23.57C.02,98.44,15.64,82.6,34.9,82.6s34.89,15.84,34.89,35.38v14.68l-.04.05c15.25,0,27.63-12.55,27.63-28.01s-11.62-27.25-26.22-27.98l-37.34-3.08C14.92,72.32,0,56.36,0,36.86S16.27,0,36.34,0h45.06v5.95c0,13.02,10.41,23.59,23.26,23.59s23.25-10.57,23.25-23.59V0h11.61v23.57c0,19.54-15.62,35.39-34.89,35.39s-34.89-15.85-34.89-35.39v-14.68l.03-.04c-15.25,0-27.62,12.54-27.62,28.02,0,14.47,10.82,26.39,24.73,27.86h-.03.03l37.31,3.13c19.61.54,35.36,16.83,35.36,36.86s-16.28,36.86-36.35,36.86M104.39,67.86l-.19-.02h0l.2.02Z"/>
  </g>
</svg>